<svg xmlns="http://www.w3.org/2000/svg" width="86" height="86" fill="none"><circle cx="43.334" cy="42.888" r="42.666" fill="#DFF0EE"/><path fill="#197697" d="M58.27 27.759c-3.984-4.004-9.295-6.204-14.952-6.204-11.647 0-21.136 9.488-21.146 21.136 0 3.73.973 7.36 2.818 10.573L22 64.222l11.212-2.94a21.147 21.147 0 0 0 10.106 2.574h.01c11.648 0 21.136-9.489 21.146-21.146A21.061 21.061 0 0 0 58.27 27.76Zm-14.952 32.52a17.52 17.52 0 0 1-8.95-2.454l-.64-.386-6.65 1.745 1.775-6.488-.416-.67a17.487 17.487 0 0 1-2.686-9.345c0-9.671 7.886-17.558 17.577-17.558 4.694 0 9.103 1.834 12.428 5.15a17.483 17.483 0 0 1 5.14 12.428c-.01 9.7-7.897 17.578-17.578 17.578Zm9.64-13.16c-.527-.263-3.122-1.54-3.608-1.724-.487-.172-.842-.262-1.186.265-.355.527-1.369 1.723-1.673 2.068-.304.355-.618.395-1.146.132-.527-.264-2.23-.822-4.247-2.626-1.571-1.4-2.625-3.132-2.94-3.66-.304-.527-.03-.81.234-1.075.233-.233.527-.617.79-.921.264-.305.355-.528.527-.882.173-.355.092-.66-.04-.923-.132-.264-1.186-2.87-1.632-3.923-.426-1.034-.862-.892-1.186-.902-.304-.02-.66-.02-1.014-.02-.355 0-.922.132-1.41.659-.486.527-1.844 1.804-1.844 4.41 0 2.604 1.896 5.108 2.16 5.462.263.355 3.72 5.688 9.021 7.978 1.257.547 2.24.873 3.01 1.116 1.268.405 2.413.345 3.326.213 1.013-.152 3.122-1.277 3.568-2.514.436-1.238.436-2.291.304-2.514-.132-.223-.487-.355-1.014-.618Z"/></svg>