<svg xmlns="http://www.w3.org/2000/svg" width="32" height="33" fill="none"><path fill="#197697" d="M16.001.22c-4.345 0-4.89.02-6.597.097-1.703.078-2.866.348-3.883.743a7.85 7.85 0 0 0-2.835 1.845A7.858 7.858 0 0 0 .84 5.74C.443 6.757.173 7.92.096 9.623.02 11.33 0 11.876 0 16.221c0 4.346.02 4.89.097 6.596.078 1.703.348 2.866.743 3.884a7.847 7.847 0 0 0 1.845 2.834A7.848 7.848 0 0 0 5.52 31.38c1.018.395 2.18.666 3.884.743 1.706.078 2.251.097 6.596.097 4.346 0 4.89-.02 6.597-.096 1.703-.078 2.867-.349 3.885-.744a7.832 7.832 0 0 0 2.832-1.846A7.861 7.861 0 0 0 31.16 26.7c.393-1.018.663-2.18.743-3.884.077-1.707.097-2.25.097-6.596 0-4.345-.02-4.89-.097-6.598-.08-1.703-.35-2.866-.743-3.883a7.856 7.856 0 0 0-1.847-2.835A7.83 7.83 0 0 0 26.48 1.06C25.46.665 24.297.395 22.593.317 20.887.24 20.343.22 15.996.22h.005Zm-1.435 2.884h1.435c4.273 0 4.779.015 6.466.092 1.56.071 2.407.332 2.97.55.747.29 1.28.637 1.84 1.197s.906 1.094 1.197 1.84c.219.564.48 1.41.55 2.97.077 1.688.094 2.194.094 6.465 0 4.27-.017 4.776-.093 6.462-.072 1.56-.332 2.407-.551 2.97a4.94 4.94 0 0 1-1.198 1.838c-.56.56-1.091.907-1.838 1.198-.564.22-1.411.48-2.971.55-1.687.078-2.193.095-6.466.095-4.272 0-4.778-.017-6.465-.095-1.56-.072-2.407-.332-2.97-.55a4.958 4.958 0 0 1-1.841-1.198 4.946 4.946 0 0 1-1.197-1.84c-.22-.561-.48-1.41-.55-2.97-.078-1.686-.093-2.192-.093-6.465s.015-4.777.092-6.464c.071-1.56.332-2.406.55-2.97.29-.747.638-1.28 1.198-1.84a4.968 4.968 0 0 1 1.84-1.198c.564-.22 1.411-.48 2.971-.55 1.476-.068 2.048-.088 5.03-.09v.003Zm9.976 2.656a1.92 1.92 0 1 0 .001 3.842 1.92 1.92 0 0 0-.001-3.842Zm-8.54 2.244a8.217 8.217 0 1 0 0 16.435 8.217 8.217 0 0 0 0-16.435Zm-.001 2.883A5.334 5.334 0 1 1 16 21.555 5.334 5.334 0 0 1 16 10.887Z"/></svg>