<svg width="32" height="33" viewBox="0 0 32 33" fill="none" xmlns="http://www.w3.org/2000/svg">
<path d="M16.001 0.220459C11.656 0.220459 11.1111 0.240459 9.40405 0.317459C7.70105 0.395459 6.538 0.665459 5.521 1.06046C4.468 1.46946 3.57604 2.01646 2.68604 2.90546C1.79604 3.79546 1.24997 4.68746 0.839966 5.73946C0.442966 6.75746 0.172947 7.92046 0.0959473 9.62346C0.0199473 11.3295 0 11.8755 0 16.2215C0 20.5665 0.0200459 21.1105 0.0970459 22.8165C0.175046 24.5205 0.444966 25.6825 0.839966 26.7005C1.24897 27.7525 1.79606 28.6455 2.68506 29.5345C3.57506 30.4245 4.46704 30.9725 5.51904 31.3815C6.53704 31.7765 7.69895 32.0465 9.40295 32.1245C11.109 32.2025 11.654 32.2215 15.999 32.2215C20.345 32.2215 20.8889 32.2015 22.5959 32.1245C24.2989 32.0465 25.463 31.7765 26.481 31.3815C27.533 30.9725 28.424 30.4245 29.313 29.5345C30.203 28.6445 30.75 27.7525 31.16 26.7005C31.553 25.6825 31.823 24.5205 31.903 22.8175C31.98 21.1105 32 20.5665 32 16.2215C32 11.8755 31.98 11.3305 31.903 9.62346C31.823 7.92046 31.553 6.75746 31.16 5.74046C30.75 4.68746 30.203 3.79546 29.313 2.90546C28.423 2.01546 27.533 1.46946 26.48 1.06046C25.46 0.665459 24.297 0.395459 22.593 0.317459C20.887 0.239459 20.343 0.220459 15.996 0.220459H16.001ZM14.566 3.10446H16.001C20.274 3.10446 20.78 3.11946 22.467 3.19646C24.027 3.26746 24.874 3.52846 25.437 3.74646C26.184 4.03646 26.717 4.38346 27.277 4.94346C27.837 5.50346 28.183 6.03746 28.474 6.78345C28.693 7.34746 28.954 8.19346 29.024 9.75346C29.101 11.4405 29.118 11.9475 29.118 16.2175C29.118 20.4875 29.101 20.9945 29.025 22.6805C28.953 24.2405 28.693 25.0875 28.474 25.6505C28.184 26.3975 27.836 26.9295 27.276 27.4885C26.716 28.0485 26.185 28.3955 25.438 28.6855C24.874 28.9055 24.027 29.1655 22.467 29.2365C20.78 29.3135 20.274 29.3305 16.001 29.3305C11.729 29.3305 11.223 29.3135 9.53601 29.2365C7.97601 29.1645 7.12904 28.9045 6.56604 28.6855C5.81804 28.3955 5.28598 28.0485 4.72498 27.4885C4.16498 26.9285 3.81795 26.3965 3.52795 25.6485C3.30795 25.0865 3.04805 24.2385 2.97705 22.6785C2.90005 20.9925 2.88501 20.4865 2.88501 16.2135C2.88501 11.9405 2.90005 11.4365 2.97705 9.74946C3.04805 8.18946 3.30898 7.34346 3.52698 6.77946C3.81698 6.03246 4.16498 5.49946 4.72498 4.93946C5.28498 4.37946 5.81794 4.03246 6.56494 3.74146C7.12894 3.52146 7.97601 3.26146 9.53601 3.19046C11.012 3.12346 11.584 3.10346 14.566 3.10046V3.10446ZM24.542 5.76046C23.482 5.76046 22.6219 6.62046 22.6219 7.68046C22.6219 8.74046 23.482 9.60046 24.542 9.60046C25.602 9.60046 26.462 8.74046 26.462 7.68046C26.462 6.62046 25.602 5.76046 24.542 5.76046ZM16.002 8.00446C11.464 8.00446 7.78503 11.6835 7.78503 16.2215C7.78503 20.7585 11.464 24.4365 16.001 24.4365C20.539 24.4365 24.217 20.7585 24.217 16.2215C24.217 11.6835 20.54 8.00446 16.002 8.00446ZM16.001 10.8875C18.946 10.8875 21.334 13.2755 21.334 16.2215C21.334 19.1665 18.946 21.5545 16 21.5545C13.055 21.5545 10.667 19.1665 10.667 16.2215C10.667 13.2755 13.056 10.8875 16.001 10.8875Z" fill="#197697"/>
</svg>
