<svg width="33" height="33" viewBox="0 0 33 33" fill="none" xmlns="http://www.w3.org/2000/svg">
<path d="M27.87 4.87468C24.881 1.87068 20.898 0.22168 16.655 0.22168C7.92003 0.22168 0.804044 7.33768 0.795044 16.0727C0.795044 18.8707 1.52506 21.5927 2.90906 24.0027L0.666992 32.2217L9.07495 30.0167C11.395 31.2787 14.002 31.9477 16.655 31.9477H16.663C25.398 31.9477 32.5149 24.8317 32.5229 16.0877C32.5149 11.8537 30.866 7.86968 27.87 4.87468ZM16.6541 29.2647C14.2821 29.2647 11.964 28.6247 9.94104 27.4247L9.46204 27.1347L4.47498 28.4427L5.80505 23.5767L5.49304 23.0757C4.17104 20.9767 3.479 18.5517 3.479 16.0657C3.479 8.81268 9.39399 2.89768 16.662 2.89768C20.182 2.89768 23.4891 4.27368 25.9821 6.75968C28.4691 9.25368 29.837 12.5597 29.837 16.0807C29.83 23.3567 23.9151 29.2647 16.6541 29.2647ZM23.884 19.3937C23.489 19.1967 21.543 18.2387 21.178 18.1017C20.813 17.9727 20.547 17.9047 20.288 18.2997C20.022 18.6947 19.2621 19.5917 19.0341 19.8507C18.8061 20.1167 18.57 20.1467 18.174 19.9497C17.7789 19.7517 16.502 19.3337 14.989 17.9797C13.811 16.9317 13.0201 15.6307 12.7841 15.2357C12.5561 14.8407 12.762 14.6277 12.959 14.4297C13.134 14.2547 13.355 13.9657 13.552 13.7377C13.75 13.5097 13.818 13.3427 13.948 13.0767C14.077 12.8107 14.016 12.5827 13.918 12.3847C13.818 12.1867 13.028 10.2327 12.693 9.44268C12.373 8.66668 12.047 8.77268 11.803 8.76568C11.576 8.75068 11.31 8.75068 11.043 8.75068C10.777 8.75068 10.3521 8.84968 9.98706 9.24468C9.62206 9.63968 8.60303 10.5977 8.60303 12.5517C8.60303 14.5057 10.025 16.3837 10.223 16.6497C10.42 16.9157 13.013 20.9147 16.989 22.6337C17.931 23.0437 18.6689 23.2867 19.2469 23.4697C20.1969 23.7737 21.057 23.7277 21.74 23.6297C22.5 23.5157 24.082 22.6717 24.417 21.7437C24.744 20.8167 24.744 20.0257 24.645 19.8587C24.545 19.6907 24.28 19.5917 23.885 19.3947" fill="#197697"/>
</svg>
