<svg width="257" height="257" viewBox="0 0 257 257" fill="none" xmlns="http://www.w3.org/2000/svg">
<ellipse cx="128.667" cy="128.887" rx="128" ry="128" fill="white"/>
<path d="M188.414 68.3694C172.479 52.3544 151.23 43.5544 128.606 43.5544C82.016 43.5544 44.063 81.5074 44.023 128.097C44.023 143.018 47.915 157.535 55.295 170.388L43.333 214.221L88.179 202.461C100.546 209.193 114.454 212.761 128.606 212.761H128.646C175.236 212.761 213.189 174.808 213.229 128.178C213.189 105.592 204.389 84.3454 188.414 68.3694ZM128.606 198.448C115.955 198.448 103.588 195.042 92.802 188.635L90.247 187.094L63.647 194.068L70.744 168.118L69.081 165.441C62.026 154.251 58.336 141.315 58.336 128.056C58.336 89.3734 89.882 57.8264 128.646 57.8264C147.42 57.8264 165.058 65.1665 178.358 78.4265C191.618 91.7265 198.916 109.363 198.916 128.137C198.876 166.942 167.329 198.448 128.606 198.448ZM167.166 145.817C165.058 144.762 154.678 139.653 152.732 138.923C150.785 138.233 149.366 137.87 147.988 139.978C146.568 142.087 142.514 146.871 141.298 148.25C140.081 149.67 138.824 149.83 136.715 148.776C134.607 147.722 127.795 145.492 119.725 138.274C113.441 132.679 109.224 125.744 107.967 123.636C106.75 121.528 107.845 120.393 108.899 119.338C109.832 118.406 111.008 116.865 112.062 115.648C113.116 114.432 113.482 113.54 114.171 112.121C114.86 110.701 114.536 109.485 114.008 108.431C113.481 107.377 109.264 96.9565 107.48 92.7395C105.777 88.6035 104.034 89.1714 102.736 89.1304C101.52 89.0494 100.1 89.0496 98.681 89.0496C97.262 89.0496 94.991 89.5765 93.045 91.6855C91.099 93.7935 85.665 98.9025 85.665 109.323C85.665 119.743 93.248 129.759 94.302 131.178C95.356 132.598 109.183 153.926 130.39 163.09C135.418 165.28 139.35 166.578 142.433 167.551C147.501 169.173 152.083 168.929 155.733 168.401C159.787 167.793 168.221 163.292 170.005 158.345C171.749 153.399 171.749 149.183 171.222 148.291C170.694 147.399 169.275 146.87 167.167 145.816" fill="#197697"/>
</svg>
